<?xml version="1.0" standalone="no"?>
<!DOCTYPE svg PUBLIC "-//W3C//DTD SVG 20010904//EN"
 "http://www.w3.org/TR/2001/REC-SVG-20010904/DTD/svg10.dtd">
<svg version="1.0" xmlns="http://www.w3.org/2000/svg"
 width="400.000000pt" height="400.000000pt" viewBox="0 0 400.000000 400.000000"
 preserveAspectRatio="xMidYMid meet">
<metadata>
Created by potrace 1.14, written by Peter Selinger 2001-2017
</metadata>
<g transform="translate(0.000000,400.000000) scale(0.100000,-0.100000)"
fill="#000000" stroke="none">
<path d="M513 3733 c3 -10 46 -124 97 -253 198 -507 252 -647 267 -688 18 -52
27 -51 12 2 -22 80 1 41 59 -101 44 -108 58 -152 51 -165 -5 -9 -9 -30 -9 -47
l0 -31 -63 63 c-67 67 -140 108 -225 126 -29 6 -145 11 -258 11 -204 0 -205 0
-229 -25 l-25 -24 0 -524 c0 -409 3 -527 13 -541 20 -27 67 -31 302 -26 l221
5 67 33 c36 18 92 56 123 84 52 48 57 50 66 32 33 -61 190 -172 248 -175 8 0
27 -15 41 -32 21 -25 39 -81 83 -250 31 -120 56 -221 56 -225 -1 -4 -10 10
-21 31 -11 22 -22 37 -24 35 -2 -2 38 -138 89 -303 l93 -300 -19 -45 c-18 -42
-10 -36 127 100 80 80 145 138 145 129 0 -8 -5 -20 -12 -27 -6 -6 -10 -14 -7
-16 2 -3 81 75 174 172 422 441 559 581 563 578 2 -3 -15 -33 -38 -68 -39 -58
-29 -50 118 96 l161 160 39 -12 c57 -17 212 -15 267 3 43 15 46 15 74 -6 27
-20 37 -21 237 -17 194 3 212 5 256 26 53 26 107 82 140 144 17 34 23 64 26
147 5 117 -3 156 -49 224 l-31 48 45 122 c26 67 49 136 52 154 8 40 -17 91
-49 99 -13 3 -109 4 -212 2 -212 -3 -224 -7 -301 -81 l-43 -41 -32 31 c-66 62
-110 76 -253 82 l-130 6 -195 114 c-107 62 -211 123 -230 134 -78 45 -4 -8
187 -135 187 -124 215 -148 175 -148 -7 0 -143 84 -300 186 -158 103 -298 193
-312 202 -14 9 -77 49 -140 89 l-115 74 85 -81 85 -80 -120 76 c-66 42 -327
211 -580 376 -253 164 -469 304 -480 310 -11 6 14 -21 55 -61 41 -40 66 -68
55 -63 -11 6 -118 76 -239 157 -135 90 -217 139 -213 128z m400 -400 c29 -16
126 -74 217 -127 91 -54 192 -112 225 -128 33 -17 76 -44 95 -59 19 -16 41
-29 48 -29 8 0 31 -13 51 -28 20 -15 74 -52 121 -82 47 -30 89 -57 94 -62 20
-17 -75 17 -194 69 -69 30 -168 70 -221 88 -99 34 -179 71 -129 60 l25 -5 -25
12 c-168 79 -233 108 -236 105 -5 -4 37 -198 60 -287 9 -30 14 -55 12 -57 -1
-2 -11 15 -21 37 -11 24 -21 36 -25 29 -4 -6 -11 6 -15 28 -3 21 -33 94 -66
162 -32 68 -59 130 -59 137 0 7 -16 49 -35 95 -35 82 -37 103 -10 92 9 -3 15
1 16 8 0 8 5 5 10 -7 6 -11 34 -34 62 -51z m-142 -836 c70 -34 142 -109 177
-185 26 -55 27 -63 27 -237 0 -177 -1 -181 -28 -237 -37 -75 -128 -160 -202
-187 -49 -19 -78 -21 -245 -21 l-190 0 0 451 0 450 203 -3 c197 -3 203 -4 258
-31z m1414 -69 l30 -16 -79 -36 c-43 -20 -80 -36 -82 -36 -2 0 -4 34 -4 75 l0
75 53 -23 c28 -13 66 -31 82 -39z m273 1 c17 -6 22 -16 22 -44 l0 -35 50 0 50
0 0 -80 0 -80 -50 0 -50 0 0 -174 0 -175 35 -26 34 -27 -57 -46 c-101 -83 -89
-78 -118 -51 -51 48 -54 63 -54 289 l0 210 -30 0 -30 0 0 80 0 80 30 0 30 0 0
70 0 70 58 -26 c31 -14 67 -30 80 -35z m-1228 -51 c0 -24 37 -37 105 -38 114
-1 192 -50 241 -155 22 -46 24 -63 24 -200 0 -137 -2 -154 -24 -200 -27 -57
-69 -101 -86 -90 -9 5 -10 1 -6 -14 3 -11 8 -31 11 -43 l5 -23 -11 23 c-7 12
-16 22 -20 22 -7 0 -69 150 -69 167 0 4 9 -5 21 -22 16 -24 19 -25 14 -8 -4
14 0 32 9 45 13 17 16 50 16 146 l0 124 -34 34 c-32 32 -38 34 -101 34 -127 0
-144 -23 -145 -193 0 -148 7 -167 76 -193 31 -12 46 -24 50 -40 4 -13 9 -24
13 -24 11 0 31 -95 21 -98 -5 -2 -7 -18 -5 -35 3 -20 -2 -11 -14 23 -19 54
-19 54 -21 20 -1 -19 -4 -29 -7 -22 -2 6 -18 12 -34 12 -43 0 -99 32 -148 85
-64 69 -74 101 -79 247 -5 151 8 207 70 288 40 53 42 65 23 125 -4 13 6 6 29
-18 40 -44 56 -41 56 9 0 21 4 33 10 29 6 -3 10 -11 10 -17z m2450 -24 c0 -4
-14 -45 -32 -90 l-31 -84 -94 0 c-117 0 -120 -11 -20 -76 39 -26 89 -58 109
-72 52 -34 78 -92 78 -173 -1 -109 -31 -166 -105 -200 -33 -15 -66 -19 -187
-19 -82 0 -148 4 -148 9 0 5 6 24 13 42 8 19 22 55 31 81 l17 47 107 3 c94 3
107 5 110 21 5 26 -24 55 -88 87 -67 34 -136 99 -156 145 -23 57 -18 140 13
196 44 81 63 89 236 89 81 0 147 -3 147 -6z m-1670 -84 l0 -80 -60 0 c-102 0
-100 4 -100 -280 l0 -241 -77 3 -78 3 -3 220 c-3 241 5 300 45 362 43 66 97
91 206 92 l67 1 0 -80z m208 -257 l-3 -338 -78 -3 -77 -3 2 312 3 313 65 27
c36 15 71 28 78 28 10 1 12 -70 10 -336z m839 302 c54 -27 84 -60 124 -135 22
-42 24 -56 24 -190 0 -130 -3 -150 -23 -195 -27 -60 -61 -98 -121 -136 -41
-26 -53 -29 -132 -29 -104 0 -136 10 -134 40 2 24 104 143 138 161 22 12 22
12 3 -10 -19 -21 -19 -21 -1 -15 13 5 16 4 11 -4 -10 -16 25 -16 59 0 35 16
55 57 55 111 0 42 4 48 66 106 36 34 64 63 63 64 -2 1 -35 13 -74 26 -38 12
-82 34 -98 47 -24 20 -40 24 -94 24 -108 0 -143 -34 -143 -136 0 -41 3 -54 13
-49 18 9 -85 -84 -107 -96 -14 -8 -17 -8 -11 1 6 9 3 9 -13 1 -11 -6 -24 -11
-28 -11 -3 0 -4 55 -2 123 4 103 8 129 28 167 38 74 69 108 123 135 43 21 65
25 137 25 72 0 94 -4 137 -25z m-63 -196 c34 -12 67 -27 75 -34 15 -14 10 -20
-75 -95 -22 -19 -78 -69 -124 -110 -126 -112 -198 -172 -265 -220 -77 -55 -86
-64 -57 -57 12 3 22 4 22 2 0 -1 -30 -21 -67 -43 -47 -28 -123 -95 -249 -221
-100 -100 -180 -181 -177 -181 2 0 14 5 26 10 13 6 7 -1 -12 -17 -66 -54 -217
-211 -254 -263 l-18 -25 12 25 c6 14 34 51 61 83 27 31 46 57 41 57 -10 -1
-183 -164 -183 -173 0 -4 8 -4 18 -1 9 3 -7 -8 -37 -25 -72 -41 -79 -47 -87
-84 l-6 -31 -15 28 c-8 15 -41 136 -74 269 -33 133 -78 315 -101 405 -22 89
-38 165 -36 168 3 3 9 -11 12 -31 4 -19 11 -33 17 -30 5 4 17 -11 25 -32 9
-21 22 -51 30 -68 10 -23 114 -304 149 -403 6 -17 19 -8 190 133 72 59 173
141 225 183 105 85 127 103 179 148 20 17 106 87 191 155 363 293 530 430 530
438 0 4 -18 17 -40 30 -22 12 -40 24 -40 27 0 11 59 2 114 -17z"/>
<path d="M470 2081 l0 -271 103 0 c129 0 176 20 222 95 29 47 30 52 30 169 0
106 -3 127 -23 167 -13 28 -39 58 -64 75 -38 27 -49 29 -155 32 l-113 4 0
-271z"/>
</g>
</svg>
